<svg width="45" height="63" viewBox="0 0 45 63" fill="none" xmlns="http://www.w3.org/2000/svg">
<path d="M22.6536 0.754883C10.6367 0.754883 0.88623 9.57766 0.88623 20.4492C0.88623 37.9552 22.6536 62.026 22.6536 62.026C22.6536 62.026 44.421 37.9552 44.421 20.4492C44.421 9.57766 34.6706 0.754883 22.6536 0.754883ZM22.6536 31.3905C20.9315 31.3905 19.2481 30.8771 17.8163 29.9153C16.3844 28.9535 15.2684 27.5865 14.6094 25.9871C13.9504 24.3877 13.778 22.6277 14.114 20.9298C14.4499 19.2319 15.2792 17.6722 16.4969 16.4481C17.7146 15.224 19.266 14.3903 20.955 14.0526C22.644 13.7149 24.3946 13.8882 25.9856 14.5507C27.5766 15.2132 28.9364 16.3351 29.8932 17.7745C30.8499 19.2139 31.3606 20.9063 31.3606 22.6374C31.358 24.9581 30.4399 27.183 28.8076 28.824C27.1753 30.4649 24.9621 31.3879 22.6536 31.3905Z" fill="#F4D32C"/>
</svg>
