<svg width="50" height="51" viewBox="0 0 50 51" fill="none" xmlns="http://www.w3.org/2000/svg">
<path d="M42.7136 7.31171C40.41 4.98489 37.6663 3.14002 34.6423 1.8847C31.6183 0.629382 28.3747 -0.0112566 25.1005 0.000149672C11.3819 0.000149672 0.201005 11.1811 0.201005 24.8996C0.201005 29.2966 1.35678 33.568 3.51759 37.3368L0 50.2514L13.191 46.7841C16.8342 48.769 20.9296 49.8243 25.1005 49.8243C38.8191 49.8243 50 38.6434 50 24.9248C50 18.2665 47.4121 12.0102 42.7136 7.31171ZM25.1005 45.6032C21.3819 45.6032 17.7387 44.5981 14.5477 42.7137L13.794 42.2615L5.95477 44.3218L8.0402 36.6836L7.53769 35.9047C5.47172 32.6056 4.37472 28.7922 4.37186 24.8996C4.37186 13.4926 13.6683 4.19613 25.0754 4.19613C30.603 4.19613 35.804 6.35693 39.6985 10.2765C41.6268 12.196 43.155 14.4792 44.1945 16.9937C45.2339 19.5082 45.7639 22.2039 45.7538 24.9248C45.804 36.3318 36.5075 45.6032 25.1005 45.6032ZM36.4573 30.1258C35.8291 29.8243 32.7638 28.3167 32.2111 28.0906C31.6332 27.8896 31.2312 27.7891 30.804 28.3921C30.3769 29.0203 29.196 30.4273 28.8442 30.8293C28.4925 31.2564 28.1156 31.3067 27.4874 30.98C26.8593 30.6785 24.8492 30.0001 22.4874 27.8896C20.6281 26.2313 19.397 24.1961 19.0201 23.568C18.6683 22.9398 18.9698 22.6132 19.2965 22.2866C19.5729 22.0102 19.9246 21.5579 20.2261 21.2062C20.5276 20.8544 20.6533 20.578 20.8543 20.176C21.0553 19.7489 20.9548 19.3971 20.804 19.0956C20.6533 18.7941 19.397 15.7288 18.8945 14.4725C18.392 13.2665 17.8643 13.4172 17.4874 13.3921H16.2814C15.8543 13.3921 15.201 13.5429 14.6231 14.171C14.0704 14.7991 12.4623 16.3067 12.4623 19.372C12.4623 22.4373 14.6985 25.4022 15 25.8042C15.3015 26.2313 19.397 32.5127 25.6281 35.2012C27.1106 35.8544 28.2663 36.2313 29.1709 36.5077C30.6533 36.9851 32.0101 36.9097 33.0905 36.7589C34.2965 36.5831 36.7839 35.2514 37.2864 33.7941C37.8141 32.3368 37.8141 31.1057 37.6382 30.8293C37.4623 30.5529 37.0854 30.4273 36.4573 30.1258Z" fill="black"/>
</svg>
