<svg xmlns="http://www.w3.org/2000/svg" viewBox="0 0 476.15 169.74"><defs><style>.cls-1{fill:#f4d32c;}</style></defs><g id="Layer_2" data-name="Layer 2"><g id="Capa_1" data-name="Capa 1"><path class="cls-1" d="M127.25,126.94c-1.82,2-3.83,4.78-6,7a60.35,60.35,0,1,1-42.68-103h.77l13.94-18H78.53A78.4,78.4,0,1,0,109.1,163.56a77.92,77.92,0,0,0,25-16.77,84,84,0,0,0,14.45-19.85Z"/><g id="g26"><path id="path28" class="cls-1" d="M83.07,91.23,60.24,56.64,37.91,83.5l38.76,30.29L85,119.35l5.38-6.55L176.83,7.08,145,0,83.07,91.23"/></g><path class="cls-1" d="M154.69,68.27A29.15,29.15,0,0,0,135.5,75.4c-5.57,4.68-9.69,11.17-12.24,19.29s-2.42,14.87.49,19.68,8.38,7.38,16.1,7.38a52.16,52.16,0,0,0,15-2.66l.51-.16L162,105.85l-2.11-2-.71.25c-6,2.1-10.7,3.16-13.91,3.16-2.92,0-4.93-.71-6-2.1s-1.24-3.31-.84-6l24.38-.2,2.8-2.58.11-.21a49.54,49.54,0,0,0,2.63-6.53c2-6.52,1.88-11.74-.48-15.53S161,68.27,154.69,68.27Zm-3.46,13.24a2.91,2.91,0,0,1,2.43.82c.41.57.72,1.84-.16,4.68l-.29.68L142.34,88A16.76,16.76,0,0,1,146,83.57,8,8,0,0,1,151.23,81.51Z"/><path class="cls-1" d="M218.24,69.43a22.37,22.37,0,0,0-2.38-.22c-4.06,0-8.21,2.16-12.38,6.43l2.1-6.68-17.45,1.48L179.85,99l-7.59,21.57H190l6.35-22.45,1.84-5.85c3.76-3.63,7.19-5.47,10.2-5.47a4.8,4.8,0,0,1,2.6.52l.49.33,2.87-.89,5.39-17.17Z"/><polygon class="cls-1" points="223.06 99.06 215.59 120.6 233.3 120.6 239.74 98.17 249.61 68.96 231.55 70.43 223.06 99.06"/><path class="cls-1" d="M254.24,47.11c-1.08-1.86-3.05-2.81-5.86-2.81A11.25,11.25,0,0,0,241,47a15,15,0,0,0-4.57,7.1c-.94,3-.92,5.34.07,7.13s3,2.83,5.92,2.83a11.29,11.29,0,0,0,7.36-2.74,15,15,0,0,0,4.66-7.2C255.31,51.25,255.25,48.88,254.24,47.11Z"/><path class="cls-1" d="M297.12,69.73h-10L289,64.08c1.94-5.91,6-6.74,12.94-3.14l.66.35,2.15-1.48L310.17,46l-1.43-.32a40.54,40.54,0,0,0-8.62-1,29.57,29.57,0,0,0-18.06,5.62c-5,3.72-8.65,9.07-10.8,15.92l-1,3.48H264L260.05,79.8l.32,2.23h6.15l-5.13,16.89-7.62,21.68h17.72l6.35-22.44L283.07,82h10.4l3.86-9.93Z"/><path class="cls-1" d="M332.92,47.11c-1.08-1.86-3.05-2.81-5.86-2.81A11.25,11.25,0,0,0,319.64,47a14.89,14.89,0,0,0-4.56,7.1c-.95,3-.92,5.34.07,7.13s3,2.83,5.91,2.83a11.27,11.27,0,0,0,7.36-2.74,14.91,14.91,0,0,0,4.66-7.2C334,51.25,333.94,48.88,332.92,47.11Z"/><polygon class="cls-1" points="301.75 99.06 294.27 120.6 311.98 120.6 318.42 98.17 328.29 68.96 310.24 70.43 301.75 99.06"/><path class="cls-1" d="M377,70.94a22.9,22.9,0,0,0-11.53-2.67,28.56,28.56,0,0,0-19.23,7.24c-5.47,4.76-9.57,11.42-12.2,19.81-2.55,8.13-2.72,14.59-.5,19.21,2.31,4.79,6.87,7.22,13.57,7.22a46.48,46.48,0,0,0,12.68-1.82l.57-.16,6-13.69-1.95-2.16-.79.29a29.61,29.61,0,0,1-9.1,2.11c-1.77,0-3-.47-3.69-1.43-.89-1.22-1.54-4,.49-10.49a18.93,18.93,0,0,1,4.25-7.83,7.83,7.83,0,0,1,5.75-2.45,8.54,8.54,0,0,1,3,.54,20.43,20.43,0,0,1,3.57,1.87l.54.34,2.34-.93L378,71.53Z"/><path class="cls-1" d="M421.54,72.41c-2.38-2.74-6.43-4.14-12-4.14A40.29,40.29,0,0,0,399,69.78a55.47,55.47,0,0,0-10.73,4.15l-.57.3-1.85,12,1.83,1.85.83-.46a62.29,62.29,0,0,1,8.71-4.19,18.31,18.31,0,0,1,6.13-1.28c1.38,0,2.31.28,2.62.8.16.27.47,1.18-.3,3.62l-.72,2.3-14.12,2.47c-7.7,1.33-12.81,5.86-15.2,13.47-1.57,5-1.33,9.1.73,12.13s5.7,4.64,10.78,4.72h.23l.22-.08a41,41,0,0,0,11.08-6.7,7.86,7.86,0,0,0,1.41,4,7,7,0,0,0,5,2.68l.12,0h.13a20.78,20.78,0,0,0,9.12-3l.32-.2,4.53-9.69-1.76-2.21-.82.25a5.78,5.78,0,0,1-1.95.36,4.88,4.88,0,0,1,.24-1.08c.59-1.88,1.83-5.33,3.7-10.29.64-1.83,1.36-3.82,2.14-5.91s1.44-4,1.94-5.59c1.57-5,1.14-9-1.3-11.77ZM401.67,99.32l-1.66,5.1c-2.65,2-4.83,3-6.5,3-1.36,0-1.65-.52-1.76-.72a3.87,3.87,0,0,1,.12-2.87,5.25,5.25,0,0,1,1.26-2.27,3.82,3.82,0,0,1,1.92-.94Z"/><path class="cls-1" d="M474.66,69.43a22,22,0,0,0-2.37-.22c-4.06,0-8.21,2.16-12.38,6.43L462,69l-17.45,1.48L436.28,99l-7.59,21.57h17.72l6.35-22.45,1.83-5.85c3.77-3.63,7.2-5.47,10.21-5.47a4.72,4.72,0,0,1,2.59.52l.5.33,2.87-.89,5.39-17.17Z"/></g></g></svg>